<?xml version="1.0" encoding="utf-8"?>
<!-- Generator: Adobe Illustrator 16.0.0, SVG Export Plug-In . SVG Version: 6.00 Build 0)  -->
<!DOCTYPE svg PUBLIC "-//W3C//DTD SVG 1.1//EN" "http://www.w3.org/Graphics/SVG/1.1/DTD/svg11.dtd">
<svg version="1.1" id="Layer_1" xmlns="http://www.w3.org/2000/svg" xmlns:xlink="http://www.w3.org/1999/xlink" x="0px" y="0px"
	 width="50px" height="50px" viewBox="0 0 50 50" enable-background="new 0 0 50 50" xml:space="preserve">
<path fill="#8293DC" d="M48.535,44.088c-0.185-0.646-1.147-3.982-1.912-6.094c-1.066-2.936-4.345-5.021-5.321-5.584
	c-0.188-0.107-5.76-3.418-5.76-3.418l-0.016,0.002l-2.149-1.27l-1.273-0.748c0,0-0.107-10.486-0.107-10.789
	c0-1.14-0.165-5.039-2.148-7.436c-1.589-1.895-4.281-4.706-4.301-4.733l-0.549-0.576l-0.554,0.576
	c-0.027,0.02-2.751,2.843-4.334,4.74c-1.988,2.395-2.136,6.304-2.136,7.448l0.071,7.628l0.002,0.001l0.015,1.231l0.015,1.97v0.02
	c-1.768,1.023-9.043,5.166-9.393,5.363c-0.979,0.572-4.242,2.664-5.321,5.596c-0.833,2.34-1.9,6.09-1.911,6.123l-0.208,0.766
	l0.804,0.197c0.921,0.229,4.096,0.998,6.221,1.363c0.378,0.068,0.786,0.096,1.203,0.092c2.745-0.027,5.504-1.512,6.283-1.975
	l4.544-2.635v0.006l0.403-0.238l0.994-0.578c0.042-0.025,0.076-0.055,0.12-0.082l1.96-1.16l0.378-0.217V39.67l0.843-0.494
	c0.316,0.186,0.991,0.582,1.84,1.076c2.7,1.572,7.142,4.174,7.411,4.326c0.804,0.467,3.626,1.992,6.42,1.963
	c0.354,0,0.709-0.037,1.06-0.088c2.434-0.422,6.228-1.375,6.264-1.385l0.765-0.195L48.535,44.088z M40.959,41.896
	c-0.098,0.014-0.219,0.025-0.336,0.025c-1.28,0.014-2.986-0.713-4.065-1.342c-0.233-0.133-4.41-2.572-7.68-4.482
	c-0.761-0.441-1.467-0.854-2.066-1.203v-0.004c-1.003-0.586-1.729-1.006-1.817-1.059c-0.047,0.021-0.462,0.26-0.829,0.484
	l-10.731,6.279c-1.051,0.613-2.724,1.328-4.003,1.34c-0.147,0.004-0.27-0.004-0.389-0.025c-0.598-0.1-1.297-0.24-1.997-0.387
	c0.222-0.691,0.44-1.363,0.651-1.939c0.371-1.023,1.978-2.4,3.297-3.18l0.147-0.068c0.86-0.494,5.432-3.104,9.655-5.563
	c0.517-0.293,1.02-0.588,1.518-0.879l0.387-0.227l-0.002-0.021c0,0.002,0.002,0.002,0.002,0.002s-0.132-13.169-0.137-13.461
	c0-1.54,0.375-3.629,1.077-4.466c0.391-0.468,0.863-1.005,1.34-1.535c0.482,0.532,0.955,1.067,1.342,1.535
	c0.69,0.837,1.066,2.926,1.068,4.475l0.098,9.658l0.032,3.759l11.454,6.777c1.333,0.779,2.945,2.156,3.325,3.188
	c0.201,0.574,0.426,1.248,0.649,1.93C42.24,41.65,41.55,41.791,40.959,41.896"/>
</svg>
